<svg id="Layer_1" data-name="Layer 1" xmlns="http://www.w3.org/2000/svg" viewBox="0 0 843.22 402.76"><defs><style>.cls-1{fill:#2d3181;}</style></defs><title>background2</title><path class="cls-1" d="M842,76.11,842,0c-3.23.13-6.56-.09-9.77-.09H-.68C-.5,2.84-1,6.24-1,9V288a59.52,59.52,0,0,1,18.14,2.41c30.45,8.95,47.76,35.61,67.54,57.24a168.44,168.44,0,0,0,66.54,44.42c25,9.1,52.41,12.83,79,9.18,29.13-4,54.33-17.54,77.73-33.93,24.69-17.29,48-38.37,76.45-50.07a94.21,94.21,0,0,1,46.38-6.53c16.78,1.75,32.93,6.54,49.32,10.19,62.4,13.91,129.57,10.95,186.25-19.39,28.15-15.06,53.62-34.46,83-47.47s61.26-19.14,92.89-25l0-26.73Z" transform="translate(1.02 0.14)"/></svg>