<?xml version="1.0" encoding="utf-8"?>
<!-- Generator: Adobe Illustrator 23.0.1, SVG Export Plug-In . SVG Version: 6.00 Build 0)  -->
<svg version="1.1" id="Layer_1" xmlns="http://www.w3.org/2000/svg" xmlns:xlink="http://www.w3.org/1999/xlink" x="0px" y="0px"
	 viewBox="0 0 843.2 184.3" style="enable-background:new 0 0 843.2 184.3;" xml:space="preserve">
<style type="text/css">
	.st0{fill:#2D3181;}
</style>
<title>background2</title>
<path class="st0" d="M-5.3,0v65.9c6.3-0.1,12.7,0.7,18.8,2.4c31.5,9,49.4,35.6,69.9,57.2c18.9,19.9,42.5,35.2,68.8,44.4
	c25.9,9.1,54.2,12.8,81.7,9.2c30.1-4,56.2-17.5,80.4-33.9c25.5-17.3,49.6-38.4,79.1-50.1c15.2-6,31.7-8.3,48-6.5
	c17.4,1.8,34.1,6.5,51,10.2c64.5,13.9,134,11,192.6-19.4c29.1-15.1,55.5-34.5,85.8-47.5c30.4-13,63.4-19.1,96.1-25V0H-5.3z"/>
</svg>
